<?xml version="1.0" encoding="utf-8"?>
<!-- Generator: Adobe Illustrator 23.0.4, SVG Export Plug-In . SVG Version: 6.00 Build 0)  -->
<svg version="1.1" id="图层_1" xmlns="http://www.w3.org/2000/svg" xmlns:xlink="http://www.w3.org/1999/xlink" x="0px" y="0px"
	 viewBox="0 0 10 11" style="enable-background:new 0 0 10 11;" xml:space="preserve">
<style type="text/css">
	.st0{fill-rule:evenodd;clip-rule:evenodd;fill:#FFFFFF;}
</style>
<title>失效</title>
<desc>Created with Sketch.</desc>
<g id="页面-1">
	<g id="收藏夹失效-网页端" transform="translate(-1277.000000, -552.000000)">
		<g id="Group-2" transform="translate(1273.000000, 547.000000)">
			<path id="失效" class="st0" d="M9,12c-0.3,0-0.5,0.2-0.5,0.5S8.7,13,9,13s0.5-0.2,0.5-0.5S9.3,12,9,12 M9,14.6
				c-2.3,0-4.1-1.8-4.1-4.1S6.7,6.4,9,6.4s4.1,1.8,4.1,4.1S11.3,14.6,9,14.6 M9,5.5c-2.8,0-5,2.2-5,5s2.2,5,5,5s5-2.2,5-5
				S11.8,5.5,9,5.5 M9,7.5C8.7,7.5,8.5,7.7,8.5,8v2.5C8.5,10.8,8.7,11,9,11s0.5-0.2,0.5-0.5V8C9.5,7.7,9.3,7.5,9,7.5"/>
		</g>
	</g>
</g>
</svg>
